<?xml version="1.0" encoding="UTF-8" standalone="no"?>
<svg
   xmlns:dc="http://purl.org/dc/elements/1.1/"
   xmlns:cc="http://creativecommons.org/ns#"
   xmlns:rdf="http://www.w3.org/1999/02/22-rdf-syntax-ns#"
   xmlns:svg="http://www.w3.org/2000/svg"
   xmlns="http://www.w3.org/2000/svg"
   viewBox="0 0 688 222.66667"
   height="222.66667"
   width="688"
   xml:space="preserve"
   id="svg2"
   version="1.1"><metadata
     id="metadata8"><rdf:RDF><cc:Work
         rdf:about=""><dc:format>image/svg+xml</dc:format><dc:type
           rdf:resource="http://purl.org/dc/dcmitype/StillImage" /></cc:Work></rdf:RDF></metadata><defs
     id="defs6"><clipPath
       id="clipPath22"
       clipPathUnits="userSpaceOnUse"><path
         id="path20"
         d="M 0,1663.27 H 5157.3 V 0.601563 H 0 Z" /></clipPath><clipPath
       id="clipPath28"
       clipPathUnits="userSpaceOnUse"><path
         id="path26"
         d="M 0,0 H 5160 V 1670 H 0 Z" /></clipPath></defs><g
     transform="matrix(1.3333333,0,0,-1.3333333,0,222.66667)"
     id="g10"><g
       transform="scale(0.1)"
       id="g12"><path
         id="path14"
         style="fill:#6ec72e;fill-opacity:1;fill-rule:nonzero;stroke:none"
         d="M 480.16,1663.27 0,1386.1 V 831.582 l 480.16,277.248 v 554.44" /><g
         id="g16"><g
           clip-path="url(#clipPath22)"
           id="g18"><g
             clip-path="url(#clipPath28)"
             id="g24"><path
               id="path30"
               style="fill:#6ec72e;fill-opacity:1;fill-rule:nonzero;stroke:none"
               d="M 0.0117188,831.621 V 277.191 L 480.172,554.52 0.0585938,831.621 h -0.046875" /><path
               id="path32"
               style="fill:#6ec72e;fill-opacity:1;fill-rule:nonzero;stroke:none"
               d="M 480.16,554.52 V 0 L 960.309,277.23 V 831.621 L 480.16,554.52" /></g></g></g><path
         id="path34"
         style="fill:#6ec72e;fill-opacity:1;fill-rule:nonzero;stroke:none"
         d="M 480.16,1108.79 960.32,831.621 V 1386.1 L 480.16,1108.79" /><path
         id="path36"
         style="fill:#ffffff;fill-opacity:1;fill-rule:nonzero;stroke:none"
         d="M 0.0585938,831.621 480.16,554.52 v 554.27 L 0.0585938,831.621" /><path
         id="path38"
         style="fill:#231f20;fill-opacity:1;fill-rule:nonzero;stroke:none"
         d="M 480.16,554.52 960.32,831.621 480.16,1108.79 V 554.52" /><path
         id="path40"
         style="fill:#231f20;fill-opacity:1;fill-rule:nonzero;stroke:none"
         d="m 2323.43,622.719 c 0,-35.071 5.34,-67.457 16.07,-97.16 10.71,-29.719 25.79,-55.028 45.29,-75.969 19.48,-20.961 43.33,-37.512 71.59,-49.68 28.24,-12.18 59.9,-18.262 94.97,-18.262 35.07,0 66.71,6.082 94.97,18.262 28.24,12.168 52.09,28.719 71.59,49.68 19.47,20.941 34.56,46.25 45.28,75.969 10.73,29.703 16.08,62.089 16.08,97.16 0,35.062 -5.35,67.426 -16.08,97.164 -10.72,29.695 -25.81,55.012 -45.28,75.969 -19.5,20.933 -43.35,37.488 -71.59,49.679 -28.26,12.16 -59.9,18.258 -94.97,18.258 -35.07,0 -66.73,-6.098 -94.97,-18.258 -28.26,-12.191 -52.11,-28.746 -71.59,-49.679 -19.5,-20.957 -34.58,-46.274 -45.29,-75.969 -10.73,-29.738 -16.07,-62.102 -16.07,-97.164 z m -140.26,0 c 0,50.64 9.5,97.879 28.49,141.722 18.99,43.829 45.04,82.297 78.16,115.418 33.11,33.11 72.07,59.168 116.89,78.172 44.78,18.989 93.01,28.477 144.64,28.477 51.62,0 99.83,-9.488 144.64,-28.477 44.79,-19.004 83.77,-45.062 116.89,-78.172 33.1,-33.121 59.16,-71.589 78.15,-115.418 19,-43.843 28.5,-91.082 28.5,-141.722 0,-50.66 -9.5,-98.141 -28.5,-142.449 -18.99,-44.329 -45.05,-82.801 -78.15,-115.418 -33.12,-32.641 -72.1,-58.454 -116.89,-77.442 -44.81,-18.988 -93.02,-28.488 -144.64,-28.488 -51.63,0 -99.86,9.5 -144.64,28.488 -44.82,18.988 -83.78,44.801 -116.89,77.442 -33.12,32.617 -59.17,71.089 -78.16,115.418 -18.99,44.308 -28.49,91.789 -28.49,142.449" /><path
         id="path42"
         style="fill:#231f20;fill-opacity:1;fill-rule:nonzero;stroke:none"
         d="M 3872.65,394.801 4265.68,855.02 H 3885.8 v 113.96 h 540.59 V 852.102 l -395.94,-461.68 h 416.4 V 276.449 h -574.2 v 118.352" /><path
         id="path44"
         style="fill:#231f20;fill-opacity:1;fill-rule:nonzero;stroke:none"
         d="m 4583.13,394.801 393,460.219 h -379.87 v 113.96 h 540.58 V 852.102 L 4740.92,390.422 H 5157.3 V 276.449 h -574.17 v 118.352" /><path
         id="path46"
         style="fill:#231f20;fill-opacity:1;fill-rule:nonzero;stroke:none"
         d="m 1537.08,906.348 c -2.23,-2.239 -3.92,-1.918 -3.92,0 0,0.371 0,479.122 0,479.122 H 1401.78 V 276.551 h 131.48 v 369.258 c 0,114.757 48.61,209.461 175.33,209.461 124.98,0 188.62,-95.707 188.62,-209.461 V 276.551 h 131.29 v 421.808 c 0,303.611 -341.74,357.661 -491.42,207.989" /><path
         id="path48"
         style="fill:#231f20;fill-opacity:1;fill-rule:nonzero;stroke:none"
         d="m 3544.46,453.27 c -14.7,-19.879 -34.34,-36.391 -58.38,-49.059 -23.74,-12.531 -53.8,-18.891 -89.35,-18.891 -35.66,0 -65.73,6.36 -89.39,18.899 -23.98,12.601 -43.65,29.121 -58.44,49.051 -14.99,20.21 -25.83,42.519 -32.22,66.332 -6.52,24.386 -9.83,48.058 -9.83,70.367 V 970.16 H 3076.58 V 574.031 c 0,-225.121 155.3,-278.301 194.18,-292.992 38.76,-14.609 81.14,-22.008 125.97,-22.008 44.73,0 87.12,7.399 125.95,22.008 38.81,14.68 194.12,70.371 194.12,292.992 V 968.91 H 3586.51 V 589.969 c 0,-22.52 -3.31,-46.188 -9.81,-70.367 -6.35,-23.731 -17.19,-46.063 -32.24,-66.332" /></g></g></svg>