<?xml version="1.0" encoding="utf-8"?>
<!-- Generator: Adobe Illustrator 17.0.0, SVG Export Plug-In . SVG Version: 6.00 Build 0)  -->
<!DOCTYPE svg PUBLIC "-//W3C//DTD SVG 1.1//EN" "http://www.w3.org/Graphics/SVG/1.1/DTD/svg11.dtd">
<svg version="1.1" id="Instagram_Social" xmlns="http://www.w3.org/2000/svg" xmlns:xlink="http://www.w3.org/1999/xlink" x="0px"
	 y="0px" width="128px" height="128px" viewBox="0 0 128 128" enable-background="new 0 0 128 128" xml:space="preserve">
<circle id="Circle" fill="#888888" cx="63" cy="63" r="63"/>
<g id="Instagram">
	<path fill="#FFFFFF" d="M64,30.955c10.763,0,12.037,0.041,16.288,0.235c3.93,0.179,6.064,0.836,7.485,1.388
		c1.881,0.731,3.224,1.605,4.635,3.015c1.41,1.41,2.284,2.753,3.015,4.635c0.552,1.42,1.209,3.555,1.388,7.484
		c0.194,4.25,0.235,5.525,0.235,16.288s-0.041,12.037-0.235,16.288c-0.179,3.93-0.836,6.064-1.388,7.485
		c-0.731,1.881-1.605,3.224-3.015,4.635c-1.41,1.41-2.753,2.284-4.635,3.015c-1.42,0.552-3.555,1.209-7.485,1.388
		c-4.25,0.194-5.524,0.235-16.288,0.235s-12.038-0.041-16.288-0.235c-3.93-0.179-6.064-0.836-7.485-1.388
		c-1.881-0.731-3.224-1.605-4.635-3.015c-1.41-1.41-2.284-2.753-3.015-4.635c-0.552-1.42-1.209-3.555-1.388-7.484
		c-0.194-4.25-0.235-5.525-0.235-16.288s0.041-12.037,0.235-16.288c0.179-3.93,0.836-6.064,1.388-7.485
		c0.731-1.881,1.605-3.224,3.015-4.635c1.41-1.41,2.753-2.284,4.635-3.015c1.42-0.552,3.555-1.209,7.484-1.388
		C51.963,30.996,53.237,30.955,64,30.955 M64,23.693c-10.947,0-12.319,0.046-16.619,0.243c-4.29,0.196-7.22,0.877-9.784,1.874
		c-2.651,1.03-4.898,2.408-7.139,4.649c-2.241,2.241-3.619,4.489-4.649,7.139c-0.996,2.564-1.678,5.494-1.874,9.784
		c-0.196,4.299-0.243,5.672-0.243,16.619c0,10.947,0.046,12.319,0.243,16.619c0.196,4.29,0.877,7.22,1.874,9.784
		c1.03,2.65,2.408,4.898,4.649,7.139c2.241,2.241,4.489,3.619,7.139,4.649c2.564,0.996,5.494,1.678,9.784,1.874
		c4.299,0.196,5.672,0.243,16.619,0.243s12.319-0.046,16.619-0.243c4.29-0.196,7.22-0.877,9.784-1.874
		c2.651-1.03,4.898-2.408,7.139-4.649c2.241-2.241,3.619-4.489,4.649-7.139c0.996-2.564,1.678-5.494,1.874-9.784
		c0.196-4.299,0.243-5.672,0.243-16.619s-0.046-12.319-0.243-16.619c-0.196-4.29-0.877-7.22-1.874-9.784
		c-1.03-2.651-2.408-4.898-4.649-7.139c-2.241-2.241-4.489-3.619-7.139-4.649c-2.564-0.996-5.494-1.678-9.784-1.874
		C76.319,23.739,74.947,23.693,64,23.693L64,23.693z"/>
	<path fill="#FFFFFF" d="M64,43.302c-11.431,0-20.698,9.267-20.698,20.698S52.569,84.698,64,84.698S84.698,75.431,84.698,64
		S75.431,43.302,64,43.302z M64,77.436c-7.42,0-13.436-6.015-13.436-13.436S56.58,50.564,64,50.564
		c7.42,0,13.436,6.015,13.436,13.436S71.42,77.436,64,77.436z"/>
	<circle fill="#FFFFFF" cx="85.516" cy="42.484" r="4.837"/>
</g>
</svg>
