<?xml version="1.0" encoding="utf-8"?>
<!-- Generator: Adobe Illustrator 17.0.0, SVG Export Plug-In . SVG Version: 6.00 Build 0)  -->
<!DOCTYPE svg PUBLIC "-//W3C//DTD SVG 1.1//EN" "http://www.w3.org/Graphics/SVG/1.1/DTD/svg11.dtd">
<svg version="1.1" id="Avalon" xmlns="http://www.w3.org/2000/svg" xmlns:xlink="http://www.w3.org/1999/xlink" x="0px" y="0px"
	 width="208px" height="64px" viewBox="0 0 208 64" enable-background="new 0 0 208 64" xml:space="preserve">
<g id="White_-_Color_1_">
	<g opacity="0.5">
		<path fill="#FFFFFF" d="M11.05,60.681c-1.56,0-2.9-0.533-4.021-1.598c-1.119-1.065-1.68-2.38-1.68-3.945
			c0-1.564,0.49-2.88,1.47-3.945c0.98-1.064,2.235-1.597,3.766-1.597c1.2,0,2.415,0.199,3.645,0.6l-0.194,0.6
			c-1.2-0.359-2.351-0.54-3.45-0.54c-1.311,0-2.38,0.471-3.21,1.41c-0.83,0.94-1.245,2.091-1.245,3.45
			c0,1.36,0.482,2.518,1.447,3.473s2.123,1.433,3.473,1.433c1.18,0,2.2-0.181,3.06-0.54l0.226,0.51
			c-0.38,0.22-0.878,0.39-1.493,0.51C12.228,60.62,11.63,60.681,11.05,60.681z"/>
		<path fill="#FFFFFF" d="M21.535,60.65c-1.391,0-2.556-0.485-3.495-1.455c-0.94-0.97-1.41-2.157-1.41-3.562s0.47-2.593,1.41-3.562
			c0.939-0.97,2.104-1.455,3.495-1.455c1.39,0,2.555,0.485,3.495,1.455c0.939,0.97,1.409,2.157,1.409,3.562s-0.47,2.593-1.409,3.562
			C24.09,60.165,22.925,60.65,21.535,60.65z M21.542,51.23c-1.205,0-2.204,0.425-3,1.274c-0.795,0.851-1.192,1.893-1.192,3.128
			s0.397,2.275,1.192,3.12c0.796,0.845,1.795,1.268,3,1.268s2.203-0.423,2.993-1.268s1.185-1.885,1.185-3.12
			s-0.395-2.277-1.185-3.128C23.745,51.655,22.747,51.23,21.542,51.23z"/>
		<path fill="#FFFFFF" d="M29.875,60.5v-9.795h0.33l6.39,7.351c0.23,0.26,0.442,0.517,0.638,0.772
			c0.195,0.255,0.298,0.388,0.308,0.397c-0.021-0.24-0.03-0.71-0.03-1.41v-7.05h0.69v9.795h-0.33l-6.51-7.471l-0.825-1.005
			c0.02,0.2,0.03,0.67,0.03,1.41V60.5H29.875z"/>
		<path fill="#FFFFFF" d="M44.2,51.186c-0.54,0-0.98,0.13-1.32,0.39s-0.51,0.625-0.51,1.095c0,0.54,0.225,1.025,0.675,1.455
			c0.319,0.311,0.732,0.638,1.237,0.982c0.505,0.346,0.853,0.593,1.043,0.743c0.189,0.149,0.42,0.354,0.689,0.614
			c0.49,0.49,0.735,1.056,0.735,1.695c0,0.83-0.277,1.458-0.833,1.883c-0.555,0.425-1.33,0.638-2.324,0.638
			c-0.996,0-1.828-0.261-2.498-0.78l0.36-0.525c0.68,0.46,1.399,0.69,2.16,0.69c0.76,0,1.352-0.16,1.777-0.48
			c0.425-0.319,0.638-0.77,0.638-1.35c0-0.5-0.216-0.96-0.646-1.38c-0.3-0.3-0.702-0.625-1.207-0.976
			c-0.506-0.35-0.858-0.602-1.058-0.757c-0.2-0.155-0.436-0.362-0.705-0.623c-0.51-0.51-0.766-1.1-0.766-1.77
			s0.238-1.195,0.713-1.575s1.133-0.57,1.973-0.57S45.93,50.75,46.6,51.08l-0.255,0.555C45.725,51.335,45.01,51.186,44.2,51.186z"/>
		<path fill="#FFFFFF" d="M51.685,51.38h-3.3v-0.614h7.274v0.614h-3.3v9.12h-0.675V51.38z"/>
		<path fill="#FFFFFF" d="M58.134,60.5v-9.689c0.86-0.07,1.591-0.105,2.19-0.105c0.92,0,1.68,0.238,2.28,0.713
			c0.6,0.475,0.899,1.152,0.899,2.032c0,0.59-0.17,1.135-0.51,1.635S62.27,55.99,61.839,56.3c1.19,1.581,1.925,2.525,2.205,2.835
			c0.57,0.591,1.19,0.926,1.86,1.006l-0.015,0.465c-0.561-0.011-1.016-0.093-1.365-0.248c-0.351-0.154-0.697-0.417-1.043-0.787
			c-0.345-0.37-1.103-1.365-2.272-2.985c-0.81,0-1.604-0.024-2.385-0.075v3.99H58.134z M60.834,56.016
			c0.391,0,0.811-0.261,1.26-0.78c0.45-0.52,0.676-1.125,0.676-1.815c0-0.689-0.235-1.215-0.705-1.574
			c-0.471-0.36-1.08-0.54-1.83-0.54c-0.4,0-0.87,0.02-1.41,0.06v4.575C59.544,55.99,60.214,56.016,60.834,56.016z"/>
		<path fill="#FFFFFF" d="M74.379,59.495c-0.66,0.771-1.665,1.155-3.015,1.155s-2.355-0.385-3.015-1.155
			c-0.66-0.77-0.99-1.835-0.99-3.195v-5.534h0.689V56.3c0,2.49,1.105,3.735,3.315,3.735s3.314-1.245,3.314-3.735v-5.534h0.69V56.3
			C75.369,57.66,75.039,58.726,74.379,59.495z"/>
		<path fill="#FFFFFF" d="M86.89,60.021c-0.75,0.42-1.793,0.63-3.128,0.63s-2.51-0.48-3.524-1.44
			c-1.016-0.96-1.522-2.152-1.522-3.577s0.442-2.617,1.327-3.577s2.027-1.44,3.428-1.44c1.13,0,2.234,0.175,3.314,0.525l-0.18,0.569
			c-1.04-0.319-2.115-0.479-3.225-0.479c-1.11,0-2.043,0.422-2.798,1.268c-0.755,0.845-1.133,1.88-1.133,3.104
			c0,1.226,0.438,2.268,1.312,3.128s1.888,1.29,3.038,1.29c1.149,0,2.104-0.16,2.864-0.48L86.89,60.021z"/>
		<path fill="#FFFFFF" d="M91.524,51.38h-3.3v-0.614h7.274v0.614h-3.3v9.12h-0.675V51.38z"/>
		<path fill="#FFFFFF" d="M97.974,60.5v-9.734h0.69V60.5H97.974z"/>
		<path fill="#FFFFFF" d="M107.004,60.65c-1.39,0-2.555-0.485-3.495-1.455c-0.939-0.97-1.409-2.157-1.409-3.562
			s0.47-2.593,1.409-3.562c0.94-0.97,2.105-1.455,3.495-1.455s2.556,0.485,3.495,1.455c0.94,0.97,1.41,2.157,1.41,3.562
			s-0.47,2.593-1.41,3.562C109.56,60.165,108.394,60.65,107.004,60.65z M107.012,51.23c-1.205,0-2.205,0.425-3,1.274
			c-0.795,0.851-1.192,1.893-1.192,3.128s0.397,2.275,1.192,3.12s1.795,1.268,3,1.268s2.202-0.423,2.992-1.268
			s1.186-1.885,1.186-3.12s-0.396-2.277-1.186-3.128C109.214,51.655,108.217,51.23,107.012,51.23z"/>
		<path fill="#FFFFFF" d="M115.344,60.5v-9.795h0.33l6.391,7.351c0.229,0.26,0.442,0.517,0.638,0.772
			c0.194,0.255,0.297,0.388,0.307,0.397c-0.02-0.24-0.029-0.71-0.029-1.41v-7.05h0.689v9.795h-0.33l-6.51-7.471l-0.825-1.005
			c0.021,0.2,0.03,0.67,0.03,1.41V60.5H115.344z"/>
		<path fill="#FFFFFF" d="M140.123,56.375h0.586c-0.021,0.931-0.285,1.745-0.796,2.445l1.561,1.68h-0.9l-1.095-1.185
			c-0.48,0.42-1.03,0.75-1.65,0.99c-0.62,0.239-1.22,0.359-1.8,0.359c-0.97,0-1.728-0.202-2.272-0.607s-0.817-0.973-0.817-1.702
			c0-0.73,0.215-1.348,0.646-1.853c0.43-0.505,1.034-1.022,1.814-1.553c-1.19-1.28-1.785-2.265-1.785-2.955
			c0-0.689,0.226-1.232,0.675-1.627c0.45-0.396,1.105-0.593,1.966-0.593c0.859,0,1.505,0.202,1.935,0.607s0.646,0.89,0.646,1.455
			c0,0.564-0.216,1.098-0.646,1.598s-1.025,1.045-1.785,1.635l3.105,3.314c0.17-0.199,0.314-0.504,0.435-0.914
			S140.123,56.695,140.123,56.375z M136.118,60.08c1.011,0,1.985-0.405,2.926-1.215l-3.195-3.42c-1.48,0.9-2.22,1.8-2.22,2.7
			c0,0.609,0.215,1.085,0.645,1.425S135.318,60.08,136.118,60.08z M138.158,51.965c0-0.5-0.162-0.89-0.487-1.17
			c-0.325-0.279-0.782-0.42-1.372-0.42c-1.341,0-2.011,0.53-2.011,1.59c0,0.28,0.088,0.583,0.263,0.908s0.362,0.6,0.562,0.824
			c0.2,0.226,0.48,0.518,0.84,0.878C137.424,53.605,138.158,52.735,138.158,51.965z"/>
		<path fill="#FFFFFF" d="M152.963,49.67c1.65,0,3.03,0.513,4.141,1.538c1.109,1.024,1.665,2.417,1.665,4.177
			c0,0.891-0.143,1.678-0.428,2.363c-0.285,0.685-0.678,1.232-1.178,1.643c-1.03,0.83-2.314,1.244-3.854,1.244
			c-1.011,0-2.155-0.055-3.436-0.164V49.775C150.894,49.705,151.923,49.67,152.963,49.67z M153.309,59.976
			c1.41,0,2.542-0.383,3.397-1.147c0.854-0.766,1.282-1.918,1.282-3.458s-0.482-2.765-1.447-3.675
			c-0.966-0.91-2.158-1.365-3.578-1.365c-0.909,0-1.7,0.025-2.369,0.075v9.45C151.243,59.936,152.148,59.976,153.309,59.976z"/>
		<path fill="#FFFFFF" d="M162.354,60.5v-9.734h4.545v0.6h-3.854v3.54h3.479v0.585h-3.479v4.38h4.005v0.63H162.354z"/>
		<path fill="#FFFFFF" d="M172.208,51.186c-0.54,0-0.98,0.13-1.32,0.39s-0.51,0.625-0.51,1.095c0,0.54,0.226,1.025,0.675,1.455
			c0.32,0.311,0.732,0.638,1.238,0.982c0.505,0.346,0.852,0.593,1.042,0.743c0.19,0.149,0.42,0.354,0.69,0.614
			c0.489,0.49,0.734,1.056,0.734,1.695c0,0.83-0.277,1.458-0.832,1.883s-1.33,0.638-2.325,0.638s-1.827-0.261-2.497-0.78
			l0.359-0.525c0.68,0.46,1.4,0.69,2.16,0.69s1.353-0.16,1.777-0.48c0.425-0.319,0.638-0.77,0.638-1.35c0-0.5-0.215-0.96-0.645-1.38
			c-0.301-0.3-0.703-0.625-1.208-0.976c-0.505-0.35-0.857-0.602-1.058-0.757s-0.435-0.362-0.705-0.623
			c-0.51-0.51-0.765-1.1-0.765-1.77s0.237-1.195,0.713-1.575c0.475-0.38,1.132-0.57,1.972-0.57c0.841,0,1.596,0.165,2.266,0.495
			l-0.255,0.555C173.733,51.335,173.019,51.186,172.208,51.186z"/>
		<path fill="#FFFFFF" d="M177.953,60.5v-9.734h0.69V60.5H177.953z"/>
		<path fill="#FFFFFF" d="M186.743,51.23c-1.11,0-2.043,0.422-2.798,1.268c-0.755,0.845-1.133,1.882-1.133,3.112
			c0,1.229,0.425,2.272,1.275,3.127c0.85,0.855,1.853,1.283,3.007,1.283c1.155,0,2.053-0.136,2.693-0.405V55.61h0.689v4.32
			c-0.78,0.479-1.885,0.72-3.314,0.72c-1.431,0-2.636-0.485-3.615-1.455c-0.98-0.97-1.47-2.162-1.47-3.577s0.442-2.603,1.327-3.562
			s2.027-1.44,3.428-1.44c1.13,0,2.234,0.175,3.314,0.525l-0.18,0.569C188.928,51.391,187.853,51.23,186.743,51.23z"/>
		<path fill="#FFFFFF" d="M194.183,60.5v-9.795h0.33l6.39,7.351c0.23,0.26,0.442,0.517,0.638,0.772
			c0.195,0.255,0.298,0.388,0.308,0.397c-0.021-0.24-0.03-0.71-0.03-1.41v-7.05h0.69v9.795h-0.33l-6.51-7.471l-0.825-1.005
			c0.02,0.2,0.03,0.67,0.03,1.41V60.5H194.183z"/>
	</g>
	<g id="Avalon_8_">
		<g>
			<path fill="#FFFFFF" d="M13.892,30.049L8.33,43.44H5.575L21.83,4.561h1.512l16.308,38.88h-2.916l-5.562-13.392H13.892z
				 M22.424,8.881c-0.036,0.036-0.108,0.252-0.216,0.647c-0.505,1.549-0.991,2.862-1.458,3.942l-5.94,14.364h15.444l-5.94-14.311
				C23.053,10.789,22.424,9.241,22.424,8.881z"/>
			<path fill="#FFFFFF" d="M53.798,35.61l12.96-30.779h2.754L52.88,43.765h-1.513L34.682,4.831h2.916l12.96,30.672
				c0.899,2.196,1.458,3.708,1.674,4.536C52.52,38.887,53.042,37.411,53.798,35.61z"/>
			<path fill="#FFFFFF" d="M72.859,30.049L67.297,43.44h-2.754l16.254-38.88h1.512l16.309,38.88h-2.916l-5.562-13.392H72.859z
				 M81.391,8.881c-0.036,0.036-0.107,0.252-0.216,0.647c-0.505,1.549-0.99,2.862-1.458,3.942l-5.939,14.364h15.443l-5.939-14.311
				C82.021,10.789,81.391,9.241,81.391,8.881z"/>
			<path fill="#FFFFFF" d="M103.152,43.44V4.831h2.593v36.233h17.766v2.376H103.152z"/>
			<path fill="#FFFFFF" d="M172,10.986l0.108,4.591V43.44h-2.593V4.507h1.188l25.434,29.322c1.729,2.052,3.06,3.69,3.996,4.913
				c-0.145-1.728-0.216-3.707-0.216-5.939V4.831h2.592v38.934h-1.188l-25.92-29.862c-1.801-2.052-2.953-3.419-3.456-4.104
				L172,10.986z"/>
		</g>
		<g>
			<g>
				<defs>
					<rect id="SVGID_1_" x="121.954" y="2" width="44" height="44"/>
				</defs>
				<clipPath id="SVGID_2_">
					<use xlink:href="#SVGID_1_"  overflow="visible"/>
				</clipPath>
				<g clip-path="url(#SVGID_2_)">
					<defs>
						<rect id="SVGID_3_" x="121.954" y="2" width="44" height="44"/>
					</defs>
					<clipPath id="SVGID_4_">
						<use xlink:href="#SVGID_3_"  overflow="visible"/>
					</clipPath>
					<path clip-path="url(#SVGID_4_)" fill="#FBB03B" d="M160.759,15.363V7.194h-8.168C150.948,4.105,147.697,2,143.954,2
						c-3.743,0-6.994,2.105-8.637,5.194h-8.168v8.168c-3.09,1.643-5.194,4.894-5.194,8.637c0,3.743,2.105,6.994,5.194,8.637v8.168
						h8.168c1.643,3.09,4.894,5.194,8.637,5.194c3.744,0,6.994-2.105,8.637-5.194h8.168v-8.168c3.09-1.643,5.194-4.894,5.194-8.637
						C165.954,20.256,163.849,17.006,160.759,15.363 M159.325,29.939l-1.621,0.862v6.949h-6.948l-0.862,1.621
						c-1.172,2.204-3.448,3.574-5.94,3.574c-2.491,0-4.767-1.37-5.939-3.574l-0.862-1.621h-6.949v-6.949l-1.621-0.862
						c-2.204-1.172-3.574-3.448-3.574-5.939c0-2.492,1.369-4.768,3.574-5.94l1.621-0.862V10.25h6.949l0.862-1.621
						c1.172-2.204,3.448-3.573,5.939-3.573c2.492,0,4.767,1.369,5.94,3.573l0.862,1.621h6.948v6.948l1.621,0.862
						c2.204,1.172,3.573,3.448,3.573,5.94C162.898,26.491,161.529,28.767,159.325,29.939"/>
				</g>
			</g>
		</g>
	</g>
</g>
</svg>
