<?xml version="1.0" encoding="utf-8"?>
<!-- Generator: Adobe Illustrator 17.0.0, SVG Export Plug-In . SVG Version: 6.00 Build 0)  -->
<!DOCTYPE svg PUBLIC "-//W3C//DTD SVG 1.1//EN" "http://www.w3.org/Graphics/SVG/1.1/DTD/svg11.dtd">
<svg version="1.1" xmlns="http://www.w3.org/2000/svg" xmlns:xlink="http://www.w3.org/1999/xlink" x="0px" y="0px"
	 width="826.797px" height="160.728px" viewBox="0 0 826.797 160.728" enable-background="new 0 0 826.797 160.728"
	 xml:space="preserve">
<g id="Layer_2" display="none">
	<rect x="-66.467" y="-196.967" display="inline" stroke="#FFFFFF" stroke-miterlimit="10" width="981" height="591"/>
</g>
<g id="superpower">
	<g>
		<g id="drop_shadow_8_">
			<path fill="#FF0000" d="M6.458,115.518c0.83-3.732,1.659-7.464,2.489-11.196c18.876-1.032,37.755-1.992,56.639-2.88
				c0.718-3.52,1.437-7.04,2.155-10.56c-15.017,0.554-30.032,1.144-45.045,1.769c0.807-3.687,1.615-7.374,2.422-11.061
				c-3.731,0.112-7.462,0.226-11.193,0.341c0.83-3.732,1.659-7.464,2.489-11.196c3.709-0.07,7.418-0.139,11.127-0.206
				c0.807-3.687,1.615-7.374,2.422-11.061c18.434-0.118,36.869-0.228,55.304-0.329c-0.696,3.482-1.392,6.963-2.087,10.445
				c-14.838,0.233-29.675,0.481-44.511,0.745c-0.785,3.643-1.57,7.287-2.356,10.93c14.925-0.436,29.852-0.846,44.78-1.23
				c-0.696,3.482-1.392,6.963-2.087,10.445c3.754-0.134,7.509-0.266,11.264-0.396c-0.673,3.444-1.347,6.888-2.02,10.333
				c-3.777,0.166-7.554,0.336-11.331,0.508c-0.696,3.482-1.392,6.963-2.087,10.445C52.032,112.622,29.241,114.008,6.458,115.518z"/>
			<path fill="#39B54A" d="M100.454,109.999c0.645-3.399,1.29-6.799,1.935-10.198c-3.778,0.159-7.555,0.321-11.332,0.486
				c2.671-13.741,5.341-27.481,8.012-41.222c7.374-0.039,14.748-0.076,22.122-0.112c-2.49,13.46-4.979,26.919-7.469,40.379
				c11.333-0.46,22.668-0.895,34.003-1.304c2.217-13.076,4.433-26.152,6.65-39.228c7.374-0.032,14.749-0.063,22.123-0.092
				c-2.542,16.057-5.084,32.114-7.626,48.171C146.062,107.793,123.256,108.833,100.454,109.999z"/>
			<path fill="#0000FF" d="M170.194,116.379c3.016-19.228,6.033-38.455,9.049-57.683c22.123-0.087,44.247-0.162,66.371-0.225
				c-0.364,3.064-0.729,6.128-1.093,9.192c3.711-0.03,7.421-0.059,11.132-0.088c-0.682,6.09-1.365,12.179-2.047,18.269
				c-3.757,0.065-7.514,0.132-11.271,0.202c-0.364,3.064-0.729,6.128-1.093,9.191c-15.12,0.357-30.239,0.759-45.356,1.208
				c-0.914,6.305-1.827,12.611-2.741,18.916C185.494,115.684,177.843,116.023,170.194,116.379z M197.255,86.987
				c11.269-0.262,22.539-0.504,33.809-0.726c0.775-6.168,1.55-12.337,2.325-18.505c-11.131,0.096-22.263,0.201-33.393,0.315
				C199.082,74.376,198.169,80.682,197.255,86.987z"/>
			<path fill="#FF0000" d="M265.798,103.747c0.312-3.023,0.624-6.046,0.937-9.068c-3.78,0.076-7.561,0.156-11.341,0.238
				c1.006-9.121,2.013-18.242,3.019-27.362c3.711-0.028,7.421-0.055,11.132-0.08c0.312-3.023,0.624-6.046,0.937-9.068
				c18.437-0.045,36.874-0.081,55.311-0.11c-0.196,2.954-0.392,5.909-0.587,8.863c3.711-0.016,7.422-0.031,11.132-0.046
				c-0.345,5.889-0.69,11.777-1.035,17.666c-18.788,0.164-37.575,0.384-56.36,0.659c-0.289,3.007-0.578,6.013-0.867,9.02
				c15.122-0.283,30.244-0.52,45.368-0.711c-0.196,2.954-0.392,5.909-0.587,8.863C303.835,102.902,284.816,103.281,265.798,103.747z
				 M279.81,76.419c11.202-0.118,22.404-0.223,33.606-0.312c0.219-2.965,0.438-5.931,0.657-8.896
				c-11.132,0.054-22.264,0.117-33.396,0.189C280.388,70.406,280.099,73.412,279.81,76.419z"/>
			<path fill="#39B54A" d="M372.497,67.005c3.711-0.008,7.422-0.015,11.133-0.021c-0.073,2.916-0.146,5.833-0.219,8.749
				c-3.734,0.01-7.469,0.022-11.203,0.035c-0.29,8.763-0.579,17.525-0.869,26.288c-7.609,0.057-15.218,0.129-22.826,0.214
				c0.716-14.669,1.433-29.337,2.149-44.006c7.375-0.008,14.75-0.015,22.125-0.021C372.69,61.163,372.593,64.084,372.497,67.005z
				 M417.036,58.225c-0.003,2.91-0.006,5.82-0.009,8.73c-11.133,0.001-22.265,0.01-33.398,0.028
				c0.073-2.916,0.146-5.833,0.219-8.749C394.911,58.229,405.973,58.225,417.036,58.225z"/>
			<path fill="#0000FF" d="M419.832,110.607c-0.017-17.461-0.035-34.922-0.052-52.382c22.125,0,44.25,0.013,66.374,0.038
				c0.143,2.934,0.287,5.868,0.43,8.801c3.711,0.012,7.422,0.025,11.132,0.038c0.333,5.884,0.667,11.768,1,17.653
				c-3.758-0.032-7.515-0.061-11.273-0.088c0.143,2.934,0.287,5.867,0.43,8.801c-15.124-0.14-30.248-0.234-45.373-0.283
				c0.099,5.826,0.199,11.652,0.298,17.478C435.143,110.628,427.487,110.609,419.832,110.607z M442.351,84.446
				c11.273,0.028,22.546,0.077,33.819,0.145c-0.24-5.853-0.48-11.707-0.719-17.56c-11.132-0.03-22.265-0.051-33.398-0.063
				C442.153,72.794,442.252,78.62,442.351,84.446z"/>
			<path fill="#FF0000" d="M513.959,102.61c-0.196-2.954-0.392-5.909-0.587-8.863c-3.781-0.048-7.562-0.093-11.342-0.135
				c-0.517-8.833-1.035-17.666-1.552-26.499c3.711,0.014,7.422,0.029,11.132,0.046c-0.196-2.954-0.392-5.909-0.587-8.863
				c18.437,0.028,36.874,0.065,55.311,0.11c0.312,3.023,0.625,6.046,0.937,9.068c3.711,0.026,7.421,0.053,11.132,0.08
				c1.006,9.121,2.013,18.242,3.019,27.362c-3.78-0.082-7.56-0.161-11.341-0.238c0.312,3.023,0.625,6.046,0.937,9.068
				C551.999,103.281,532.979,102.902,513.959,102.61z M524.714,93.899c11.342,0.161,22.684,0.347,34.025,0.559
				c-0.867-9.02-1.734-18.039-2.601-27.059c-11.132-0.072-22.264-0.135-33.396-0.189C523.399,76.106,524.056,85.003,524.714,93.899z
				"/>
			<path fill="#39B54A" d="M606.913,95.513c3.78,0.095,7.56,0.193,11.339,0.293c0.411,3.106,0.821,6.211,1.232,9.317
				c-7.606-0.246-15.212-0.477-22.818-0.695c-0.364-3.064-0.729-6.128-1.093-9.192c-3.78-0.089-7.56-0.176-11.34-0.259
				c-1.365-12.179-2.73-24.358-4.095-36.537c7.375,0.02,14.75,0.041,22.124,0.063C603.813,70.84,605.363,83.177,606.913,95.513z
				 M624.387,58.575c1.735,12.514,3.47,25.028,5.205,37.543c-3.779-0.106-7.559-0.21-11.339-0.311
				c-1.643-12.423-3.285-24.846-4.928-37.269C617.012,58.55,620.699,58.562,624.387,58.575z M657.572,58.696
				c2.011,12.818,4.022,25.637,6.033,38.455c-3.779-0.124-7.558-0.244-11.337-0.362c0.48,3.178,0.96,6.356,1.439,9.534
				c-7.604-0.288-15.209-0.561-22.814-0.821c-0.434-3.129-0.867-6.257-1.301-9.386c3.779,0.106,7.559,0.216,11.338,0.328
				c-1.827-12.611-3.654-25.221-5.481-37.832C642.823,58.639,650.198,58.667,657.572,58.696z"/>
			<path fill="#0000FF" d="M679.347,107.346c-0.531-3.24-1.063-6.479-1.594-9.719c-3.779-0.131-7.557-0.258-11.337-0.383
				c-1.525-9.634-3.05-19.268-4.576-28.903c3.71,0.042,7.42,0.085,11.13,0.13c-0.531-3.24-1.063-6.479-1.594-9.719
				c18.436,0.077,36.872,0.162,55.307,0.256c0.645,3.399,1.29,6.799,1.935,10.198c3.71,0.054,7.419,0.109,11.129,0.164
				c1.335,6.87,2.671,13.741,4.006,20.611c-18.774-0.643-37.55-1.23-56.328-1.761c0.554,3.269,1.108,6.538,1.662,9.807
				c15.114,0.545,30.226,1.136,45.336,1.773c0.645,3.399,1.29,6.799,1.935,10.198C717.359,109.028,698.355,108.143,679.347,107.346z
				 M685.764,78.414c11.198,0.229,22.396,0.471,33.594,0.729c-0.622-3.365-1.245-6.73-1.867-10.095
				c-11.129-0.156-22.259-0.303-33.389-0.441C684.655,71.875,685.21,75.144,685.764,78.414z"/>
			<path fill="#FF0000" d="M775.893,69.945c3.709,0.062,7.419,0.125,11.128,0.189c0.763,3.601,1.526,7.202,2.289,10.803
				c-3.731-0.106-7.463-0.21-11.195-0.312c2.222,10.68,4.444,21.36,6.666,32.04c-7.598-0.448-15.196-0.882-22.795-1.302
				c-3.479-17.408-6.958-34.815-10.437-52.223c7.374,0.04,14.748,0.082,22.122,0.125C774.412,62.825,775.153,66.385,775.893,69.945z
				 M817.914,59.54c0.83,3.732,1.659,7.464,2.489,11.196c-11.127-0.209-22.254-0.41-33.381-0.602
				c-0.763-3.601-1.526-7.202-2.289-10.803C795.793,59.397,806.853,59.467,817.914,59.54z"/>
		</g>
		<g id="main_8_">
			<path fill="#FFFFFF" d="M3.289,109.819c0.838-3.75,1.677-7.5,2.515-11.25c18.816-0.92,37.636-1.777,56.459-2.571
				c0.727-3.536,1.454-7.072,2.181-10.607c-14.969,0.476-29.936,0.983-44.902,1.52c0.816-3.705,1.632-7.409,2.449-11.114
				c-3.719,0.089-7.438,0.18-11.158,0.272c0.838-3.75,1.677-7.5,2.515-11.25c3.697-0.046,7.394-0.091,11.091-0.136
				c0.816-3.705,1.632-7.409,2.449-11.114c18.375,0,36.75,0,55.125,0c-0.705,3.497-1.409,6.993-2.114,10.49
				c-14.79,0.154-29.579,0.318-44.368,0.492c-0.794,3.661-1.588,7.321-2.382,10.982c14.878-0.348,29.756-0.676,44.636-0.983
				c-0.705,3.497-1.409,6.993-2.114,10.49c3.742-0.115,7.485-0.229,11.227-0.34c-0.682,3.459-1.364,6.918-2.047,10.377
				c-3.765,0.149-7.53,0.3-11.295,0.454c-0.705,3.497-1.409,6.993-2.114,10.49C48.719,107.172,26.001,108.439,3.289,109.819z"/>
			<path fill="#FFFFFF" d="M97.987,104.723c0.652-3.41,1.304-6.821,1.956-10.231c-3.765,0.142-7.531,0.286-11.296,0.434
				c2.698-13.786,5.397-27.571,8.095-41.357c7.35,0,14.7,0,22.05,0c-2.518,13.502-5.035,27.003-7.553,40.505
				c11.297-0.411,22.595-0.799,33.894-1.165c2.245-13.113,4.49-26.227,6.734-39.34c7.35,0,14.7,0,22.05,0
				c-2.577,16.1-5.155,32.2-7.732,48.299C143.448,102.706,120.715,103.658,97.987,104.723z"/>
			<path fill="#FFFFFF" d="M168.482,111.36c3.047-19.264,6.093-38.528,9.14-57.791c22.05,0,44.1,0,66.15,0
				c-0.369,3.068-0.739,6.136-1.108,9.205c3.698-0.02,7.396-0.039,11.095-0.058c-0.693,6.098-1.385,12.196-2.078,18.293
				c-3.745,0.056-7.489,0.114-11.234,0.174c-0.369,3.068-0.739,6.136-1.108,9.205c-15.071,0.319-30.14,0.679-45.208,1.079
				c-0.924,6.316-1.847,12.632-2.771,18.949C183.733,110.715,176.107,111.03,168.482,111.36z M195.516,81.992
				c11.232-0.225,22.465-0.433,33.698-0.624c0.785-6.178,1.57-12.355,2.356-18.533c-11.094,0.064-22.189,0.133-33.283,0.208
				C197.363,69.359,196.439,75.676,195.516,81.992z"/>
			<path fill="#FFFFFF" d="M264.797,98.944c0.315-3.025,0.631-6.05,0.946-9.075c-3.768,0.068-7.536,0.139-11.304,0.212
				c1.016-9.128,2.031-18.256,3.047-27.384c3.698-0.018,7.396-0.036,11.095-0.053c0.315-3.025,0.631-6.05,0.946-9.075
				c18.375,0,36.75,0,55.125,0c-0.199,2.956-0.398,5.911-0.597,8.867c3.698-0.011,7.397-0.021,11.095-0.03
				c-0.351,5.891-0.702,11.782-1.053,17.674c-18.725,0.142-37.45,0.331-56.174,0.567c-0.292,3.009-0.584,6.017-0.876,9.026
				c15.072-0.252,30.145-0.464,45.218-0.635c-0.199,2.956-0.398,5.911-0.597,8.867C302.71,98.172,283.752,98.519,264.797,98.944z
				 M278.799,71.621c11.165-0.095,22.329-0.178,33.494-0.25c0.222-2.967,0.444-5.934,0.667-8.901
				c-11.095,0.036-22.19,0.078-33.285,0.125C279.383,65.603,279.091,68.612,278.799,71.621z"/>
			<path fill="#FFFFFF" d="M372.163,62.332c3.698-0.005,7.397-0.01,11.095-0.014c-0.074,2.916-0.148,5.833-0.222,8.749
				c-3.722,0.008-7.444,0.017-11.165,0.028c-0.293,8.763-0.585,17.526-0.878,26.29c-7.584,0.053-15.168,0.118-22.751,0.195
				c0.722-14.67,1.443-29.341,2.165-44.011c7.35,0,14.7,0,22.05,0C372.358,56.49,372.261,59.411,372.163,62.332z M416.556,53.569
				c-0.004,2.91-0.008,5.82-0.012,8.73c-11.095,0.001-22.19,0.007-33.286,0.019c0.074-2.916,0.148-5.833,0.222-8.749
				C394.506,53.569,405.531,53.569,416.556,53.569z"/>
			<path fill="#FFFFFF" d="M420.331,105.951c-0.024-17.461-0.047-34.922-0.071-52.383c22.05,0,44.1,0,66.151,0
				c0.144,2.934,0.289,5.868,0.433,8.802c3.698,0.008,7.397,0.016,11.095,0.025c0.335,5.885,0.671,11.77,1.006,17.655
				c-3.745-0.027-7.49-0.052-11.235-0.076c0.144,2.934,0.289,5.868,0.433,8.802c-15.074-0.124-30.148-0.208-45.223-0.252
				c0.101,5.826,0.203,11.652,0.305,17.479C435.593,105.972,427.962,105.954,420.331,105.951z M442.767,79.787
				c11.236,0.025,22.471,0.066,33.707,0.125c-0.242-5.854-0.484-11.708-0.726-17.562c-11.095-0.02-22.19-0.033-33.286-0.042
				C442.564,68.134,442.666,73.96,442.767,79.787z"/>
			<path fill="#FFFFFF" d="M515.147,97.904c-0.199-2.956-0.398-5.911-0.597-8.867c-3.768-0.043-7.537-0.083-11.305-0.121
				c-0.527-8.837-1.053-17.674-1.58-26.51c3.698,0.009,7.397,0.02,11.095,0.03c-0.199-2.956-0.398-5.911-0.597-8.867
				c18.375,0,36.75,0,55.125,0c0.315,3.025,0.631,6.05,0.946,9.075c3.698,0.017,7.396,0.035,11.095,0.053
				c1.016,9.128,2.031,18.256,3.047,27.384c-3.768-0.073-7.536-0.144-11.304-0.212c0.315,3.025,0.631,6.05,0.946,9.075
				C553.063,98.519,534.106,98.172,515.147,97.904z M525.856,89.173c11.305,0.144,22.609,0.31,33.913,0.499
				c-0.876-9.026-1.752-18.052-2.629-27.078c-11.095-0.047-22.19-0.089-33.285-0.125C524.522,71.371,525.189,80.272,525.856,89.173z
				"/>
			<path fill="#FFFFFF" d="M608.78,90.634c3.767,0.085,7.535,0.172,11.302,0.262c0.416,3.111,0.831,6.221,1.247,9.332
				c-7.581-0.225-15.162-0.437-22.744-0.637c-0.37-3.068-0.739-6.136-1.108-9.205c-3.768-0.08-7.535-0.157-11.303-0.232
				c-1.385-12.195-2.771-24.391-4.156-36.586c7.35,0,14.7,0,22.05,0C605.639,65.924,607.21,78.279,608.78,90.634z M626.119,53.569
				c1.755,12.535,3.51,25.07,5.266,37.605c-3.767-0.095-7.535-0.187-11.302-0.277c-1.663-12.443-3.326-24.885-4.989-37.328
				C618.769,53.569,622.444,53.569,626.119,53.569z M659.194,53.569c2.031,12.842,4.062,25.685,6.093,38.528
				c-3.767-0.11-7.533-0.218-11.3-0.323c0.485,3.184,0.97,6.367,1.454,9.551c-7.58-0.263-15.16-0.513-22.74-0.75
				c-0.439-3.134-0.878-6.267-1.316-9.401c3.767,0.095,7.534,0.192,11.301,0.292c-1.847-12.632-3.695-25.265-5.542-37.897
				C644.494,53.569,651.844,53.569,659.194,53.569z"/>
			<path fill="#FFFFFF" d="M681.999,102.297c-0.538-3.249-1.077-6.497-1.615-9.746c-3.767-0.117-7.533-0.231-11.3-0.343
				c-1.546-9.66-3.093-19.32-4.639-28.98c3.698,0.028,7.396,0.057,11.094,0.086c-0.538-3.249-1.077-6.497-1.615-9.746
				c18.375,0,36.75,0,55.125,0c0.652,3.41,1.304,6.821,1.956,10.231c3.698,0.036,7.395,0.072,11.093,0.108
				c1.349,6.893,2.698,13.786,4.048,20.679c-18.713-0.551-37.429-1.056-56.146-1.513c0.561,3.278,1.122,6.557,1.684,9.835
				c15.065,0.487,30.129,1.015,45.19,1.583c0.652,3.41,1.304,6.821,1.956,10.231C719.889,103.836,700.945,103.027,681.999,102.297z
				 M688.316,73.239c11.162,0.183,22.323,0.377,33.484,0.582c-0.629-3.375-1.259-6.751-1.888-10.126
				c-11.093-0.103-22.186-0.2-33.28-0.291C687.193,66.682,687.754,69.961,688.316,73.239z"/>
			<path fill="#FFFFFF" d="M779.102,64.297c3.697,0.041,7.395,0.083,11.092,0.125c0.772,3.618,1.544,7.235,2.315,10.853
				c-3.72-0.084-7.439-0.168-11.159-0.25c2.249,10.728,4.497,21.456,6.745,32.185c-7.573-0.41-15.147-0.807-22.722-1.191
				c-3.523-17.483-7.047-34.967-10.57-52.45c7.35,0,14.7,0,22.05,0C777.603,57.145,778.352,60.721,779.102,64.297z M820.953,53.569
				c0.838,3.75,1.677,7.5,2.515,11.25c-11.091-0.138-22.183-0.27-33.275-0.397c-0.772-3.618-1.544-7.235-2.315-10.853
				C798.903,53.569,809.928,53.569,820.953,53.569z"/>
		</g>
	</g>
</g>
<g id="gaming">
	<g>
		<g>
			<path fill="#FF0000" d="M297.821,46c0.262-1.75,0.523-3.5,0.785-5.25c7.162,0,14.324,0,21.486,0c0.214-1.75,0.427-3.5,0.641-5.25
				c-7.114,0-14.228,0-21.342,0c0.262-1.75,0.523-3.5,0.785-5.25c-1.767,0-3.533,0-5.3,0c0.547-3.5,1.094-7,1.641-10.5
				c1.743,0,3.485,0,5.228,0c0.262-1.75,0.523-3.5,0.785-5.25c10.384,0,20.767,0,31.151,0c-0.948,8.75-1.897,17.5-2.845,26.25
				c-1.791,0-3.581,0-5.372,0c-0.202,1.75-0.403,3.5-0.605,5.25C315.846,46,306.833,46,297.821,46z M305.475,30.25
				c5.3,0,10.599,0,15.899,0c0.427-3.5,0.855-7,1.282-10.5c-5.228,0-10.455,0-15.683,0C306.473,23.25,305.974,26.75,305.475,30.25z"
				/>
			<path fill="#39B54A" d="M341.578,40.75c0.166-1.75,0.331-3.5,0.497-5.25c-1.779,0-3.557,0-5.336,0
				c0.178-1.75,0.355-3.5,0.533-5.25c1.767,0,3.533,0,5.3,0c0.166-1.75,0.331-3.5,0.497-5.25c7.018,0,14.036,0,21.055,0
				c0.118-1.75,0.236-3.5,0.353-5.25c-6.97,0-13.941,0-20.911,0c0.166-1.75,0.331-3.5,0.497-5.25c8.653,0,17.306,0,25.959,0
				c-0.106,1.75-0.212,3.5-0.317,5.25c1.743,0,3.485,0,5.228,0c-0.375,7-0.75,14-1.126,21
				C363.064,40.75,352.321,40.75,341.578,40.75z M347.411,35.5c5.336,0,10.671,0,16.007,0c0.118-1.75,0.236-3.5,0.353-5.25
				c-5.3,0-10.599,0-15.899,0C347.718,32,347.564,33.75,347.411,35.5z"/>
			<path fill="#0000FF" d="M379.179,40.75c0.409-8.75,0.818-17.5,1.227-26.25c10.384,0,20.767,0,31.151,0
				c-0.01,1.75-0.02,3.5-0.03,5.25c1.743,0,3.485,0,5.228,0c0.008,7,0.017,14,0.025,21c-3.581,0-7.162,0-10.743,0
				c0.088-7,0.175-14,0.263-21c-1.743,0-3.485,0-5.228,0c-0.136,7-0.271,14-0.407,21c-3.581,0-7.162,0-10.743,0
				c0.231-7,0.463-14,0.694-21c-1.743,0-3.485,0-5.228,0c-0.279,7-0.559,14-0.838,21C382.76,40.75,380.969,40.75,379.179,40.75z"/>
			<path fill="#FF0000" d="M423.913,40.75c-0.018-1.75-0.036-3.5-0.054-5.25c3.557,0,7.114,0,10.671,0
				c-0.126-5.25-0.252-10.5-0.378-15.75c-1.743,0-3.485,0-5.228,0c-0.03-1.75-0.06-3.5-0.09-5.25c5.192,0,10.384,0,15.575,0
				c0.264,7,0.527,14,0.791,21c3.557,0,7.114,0,10.671,0c0.09,1.75,0.18,3.5,0.27,5.25C445.399,40.75,434.656,40.75,423.913,40.75z
				 M433.901,9.25c-0.042-1.75-0.084-3.5-0.126-5.25c3.413,0,6.827,0,10.24,0c0.066,1.75,0.132,3.5,0.198,5.25
				C440.776,9.25,437.339,9.25,433.901,9.25z"/>
			<path fill="#00FF00" d="M457.904,40.75c-0.469-8.75-0.938-17.5-1.407-26.25c10.384,0,20.767,0,31.151,0
				c0.166,1.75,0.331,3.5,0.497,5.25c1.743,0,3.485,0,5.228,0c0.711,7,1.422,14,2.132,21c-3.581,0-7.162,0-10.743,0
				c-0.615-7-1.23-14-1.845-21c-5.228,0-10.456,0-15.683,0c0.471,7,0.942,14,1.413,21C465.066,40.75,461.485,40.75,457.904,40.75z"
				/>
			<path fill="#0000FF" d="M506.853,46c-0.202-1.75-0.403-3.5-0.605-5.25c7.162,0,14.324,0,21.486,0
				c-0.25-1.75-0.499-3.5-0.749-5.25c-7.114,0-14.228,0-21.342,0c-0.202-1.75-0.403-3.5-0.605-5.25c-1.767,0-3.533,0-5.3,0
				c-0.379-3.5-0.759-7-1.138-10.5c1.742,0,3.485,0,5.228,0c-0.202-1.75-0.403-3.5-0.605-5.25c10.384,0,20.767,0,31.151,0
				c1.368,8.75,2.736,17.5,4.103,26.25c-1.79,0-3.581,0-5.372,0c0.262,1.75,0.523,3.5,0.785,5.25C524.878,46,515.866,46,506.853,46z
				 M510.338,30.25c5.3,0,10.599,0,15.899,0c-0.499-3.5-0.998-7-1.498-10.5c-5.228,0-10.456,0-15.683,0
				C509.483,23.25,509.91,26.75,510.338,30.25z"/>
		</g>
		<g>
			<path fill="#FFFFFF" d="M298.419,42c0.262-1.75,0.523-3.5,0.785-5.25c7.126,0,14.251,0,21.377,0c0.214-1.75,0.427-3.5,0.641-5.25
				c-7.078,0-14.155,0-21.233,0c0.262-1.75,0.523-3.5,0.785-5.25c-1.758,0-3.515,0-5.272,0c0.547-3.5,1.094-7,1.641-10.5
				c1.733,0,3.467,0,5.2,0c0.262-1.75,0.523-3.5,0.785-5.25c10.329,0,20.658,0,30.986,0c-0.948,8.75-1.897,17.5-2.845,26.25
				c-1.781,0-3.563,0-5.344,0c-0.202,1.75-0.403,3.5-0.605,5.25C316.352,42,307.386,42,298.419,42z M306.045,26.25
				c5.272,0,10.545,0,15.817,0c0.427-3.5,0.855-7,1.282-10.5c-5.2,0-10.401,0-15.601,0C307.044,19.25,306.544,22.75,306.045,26.25z"
				/>
			<path fill="#FFFFFF" d="M341.957,36.75c0.166-1.75,0.331-3.5,0.497-5.25c-1.769,0-3.539,0-5.308,0
				c0.178-1.75,0.355-3.5,0.533-5.25c1.757,0,3.515,0,5.272,0c0.166-1.75,0.331-3.5,0.497-5.25c6.982,0,13.964,0,20.945,0
				c0.118-1.75,0.236-3.5,0.353-5.25c-6.934,0-13.868,0-20.801,0c0.166-1.75,0.331-3.5,0.497-5.25c8.607,0,17.215,0,25.822,0
				c-0.106,1.75-0.212,3.5-0.317,5.25c1.733,0,3.467,0,5.2,0c-0.375,7-0.75,14-1.126,21C363.333,36.75,352.645,36.75,341.957,36.75z
				 M347.762,31.5c5.308,0,10.616,0,15.925,0c0.118-1.75,0.236-3.5,0.353-5.25c-5.272,0-10.545,0-15.817,0
				C348.07,28,347.916,29.75,347.762,31.5z"/>
			<path fill="#FFFFFF" d="M379.366,36.75c0.409-8.75,0.818-17.5,1.227-26.25c10.329,0,20.658,0,30.986,0
				c-0.01,1.75-0.02,3.5-0.03,5.25c1.733,0,3.467,0,5.2,0c0.008,7,0.016,14,0.025,21c-3.563,0-7.126,0-10.688,0
				c0.088-7,0.175-14,0.263-21c-1.734,0-3.467,0-5.2,0c-0.136,7-0.271,14-0.407,21c-3.563,0-7.126,0-10.688,0
				c0.231-7,0.463-14,0.694-21c-1.733,0-3.467,0-5.2,0c-0.279,7-0.559,14-0.838,21C382.929,36.75,381.147,36.75,379.366,36.75z"/>
			<path fill="#FFFFFF" d="M423.872,36.75c-0.018-1.75-0.036-3.5-0.054-5.25c3.539,0,7.078,0,10.616,0
				c-0.126-5.25-0.252-10.5-0.377-15.75c-1.733,0-3.467,0-5.2,0c-0.03-1.75-0.06-3.5-0.09-5.25c5.164,0,10.329,0,15.493,0
				c0.264,7,0.527,14,0.791,21c3.539,0,7.078,0,10.616,0c0.09,1.75,0.18,3.5,0.27,5.25C445.249,36.75,434.56,36.75,423.872,36.75z
				 M433.805,5.25c-0.042-1.75-0.084-3.5-0.126-5.25c3.395,0,6.79,0,10.185,0c0.066,1.75,0.132,3.5,0.198,5.25
				C440.643,5.25,437.224,5.25,433.805,5.25z"/>
			<path fill="#FFFFFF" d="M457.69,36.75c-0.469-8.75-0.938-17.5-1.407-26.25c10.329,0,20.658,0,30.986,0
				c0.166,1.75,0.331,3.5,0.497,5.25c1.733,0,3.467,0,5.2,0c0.711,7,1.422,14,2.132,21c-3.563,0-7.125,0-10.688,0
				c-0.615-7-1.23-14-1.845-21c-5.2,0-10.401,0-15.601,0c0.471,7,0.942,14,1.413,21C464.815,36.75,461.252,36.75,457.69,36.75z"/>
			<path fill="#FFFFFF" d="M506.392,42c-0.202-1.75-0.403-3.5-0.605-5.25c7.126,0,14.251,0,21.377,0
				c-0.25-1.75-0.499-3.5-0.749-5.25c-7.078,0-14.155,0-21.233,0c-0.202-1.75-0.403-3.5-0.605-5.25c-1.758,0-3.515,0-5.272,0
				c-0.379-3.5-0.759-7-1.138-10.5c1.733,0,3.467,0,5.2,0c-0.202-1.75-0.403-3.5-0.605-5.25c10.329,0,20.658,0,30.986,0
				c1.368,8.75,2.736,17.5,4.103,26.25c-1.781,0-3.563,0-5.344,0c0.262,1.75,0.523,3.5,0.785,5.25C524.326,42,515.359,42,506.392,42
				z M509.849,26.25c5.272,0,10.544,0,15.817,0c-0.499-3.5-0.998-7-1.498-10.5c-5.2,0-10.401,0-15.601,0
				C508.995,19.25,509.422,22.75,509.849,26.25z"/>
		</g>
	</g>
</g>
</svg>
